<svg xmlns="http://www.w3.org/2000/svg" xmlns:xlink="http://www.w3.org/1999/xlink" width="100" zoomAndPan="magnify" viewBox="0 0 75 74.999997" height="100" preserveAspectRatio="xMidYMid meet" version="1.0"><defs><g/><clipPath id="2bef4a88b3"><path d="M 1.574219 1.574219 L 73.574219 1.574219 L 73.574219 73.574219 L 1.574219 73.574219 Z M 1.574219 1.574219 " clip-rule="nonzero"/></clipPath><clipPath id="d4323109dd"><path d="M 24.699219 32.347656 L 30.761719 32.347656 L 30.761719 42.816406 L 24.699219 42.816406 Z M 24.699219 32.347656 " clip-rule="nonzero"/></clipPath><clipPath id="27c44acedd"><path d="M 22.5 20 L 52.5 20 L 52.5 38 L 22.5 38 Z M 22.5 20 " clip-rule="nonzero"/></clipPath><clipPath id="113db17946"><path d="M 33 17.347656 L 41 17.347656 L 41 31 L 33 31 Z M 33 17.347656 " clip-rule="nonzero"/></clipPath><clipPath id="34f0e7ef86"><path d="M 31 34 L 36.828125 34 L 36.828125 42.816406 L 31 42.816406 Z M 31 34 " clip-rule="nonzero"/></clipPath><clipPath id="a4a92040c8"><path d="M 37.5 33.710938 L 43.5625 33.710938 L 43.5625 42.816406 L 37.5 42.816406 Z M 37.5 33.710938 " clip-rule="nonzero"/></clipPath><clipPath id="8ba3b102a4"><path d="M 43.5625 27 L 49.625 27 L 49.625 42.816406 L 43.5625 42.816406 Z M 43.5625 27 " clip-rule="nonzero"/></clipPath></defs><g clip-path="url(#2bef4a88b3)"><path fill="#fee2e2" d="M 37.574219 1.574219 C 17.722656 1.574219 1.574219 17.722656 1.574219 37.574219 C 1.574219 57.425781 17.722656 73.574219 37.574219 73.574219 C 57.425781 73.574219 73.574219 57.425781 73.574219 37.574219 C 73.574219 17.722656 57.425781 1.574219 37.574219 1.574219 Z M 37.574219 1.574219 " fill-opacity="1" fill-rule="nonzero"/></g><g clip-path="url(#d4323109dd)"><path fill="#f97316" d="M 29.527344 41.242188 C 29.527344 41.570312 29.261719 41.839844 28.933594 41.839844 L 26.519531 41.839844 C 26.191406 41.839844 25.925781 41.570312 25.925781 41.242188 L 25.925781 37.503906 C 26.148438 37.378906 26.355469 37.21875 26.539062 37.03125 L 29.527344 34.007812 Z M 30.148438 32.394531 C 29.976562 32.335938 29.785156 32.378906 29.65625 32.511719 L 25.863281 36.347656 C 25.691406 36.523438 25.480469 36.667969 25.261719 36.761719 C 25.085938 36.839844 24.972656 37.011719 24.972656 37.207031 L 24.972656 41.242188 C 24.972656 42.105469 25.664062 42.808594 26.519531 42.808594 L 28.933594 42.808594 C 29.785156 42.808594 30.480469 42.105469 30.480469 41.242188 L 30.480469 33.007812 C 30.480469 32.933594 30.476562 32.859375 30.464844 32.792969 C 30.445312 32.609375 30.320312 32.457031 30.148438 32.394531 " fill-opacity="1" fill-rule="nonzero"/></g><g clip-path="url(#27c44acedd)"><path fill="#f97316" d="M 51.359375 21.75 C 51.285156 23.324219 51.210938 24.894531 51.140625 26.46875 C 51.128906 26.71875 51.078125 26.746094 51.023438 26.777344 C 51.019531 26.78125 51.019531 26.78125 51.015625 26.78125 C 50.984375 26.753906 50.9375 26.703125 50.902344 26.671875 C 50.902344 26.671875 50.878906 26.648438 50.878906 26.644531 L 49.40625 25.167969 C 49.222656 24.980469 48.917969 24.980469 48.730469 25.171875 L 37.40625 36.632812 C 37.285156 36.75 37.136719 36.8125 36.980469 36.8125 C 36.867188 36.8125 36.699219 36.78125 36.558594 36.640625 L 30.453125 30.460938 C 30.363281 30.371094 30.242188 30.320312 30.117188 30.320312 C 29.988281 30.320312 29.867188 30.371094 29.777344 30.460938 L 24.921875 35.375 C 24.804688 35.492188 24.652344 35.554688 24.496094 35.554688 C 24.382812 35.554688 24.214844 35.527344 24.074219 35.382812 L 23.808594 35.113281 C 23.699219 35 23.632812 34.847656 23.632812 34.6875 C 23.632812 34.523438 23.699219 34.371094 23.808594 34.261719 L 29.691406 28.308594 C 29.808594 28.195312 29.957031 28.128906 30.117188 28.128906 C 30.230469 28.128906 30.394531 28.160156 30.535156 28.304688 L 36.640625 34.480469 C 36.828125 34.671875 37.132812 34.671875 37.320312 34.480469 L 47.628906 24.042969 C 47.722656 23.953125 47.769531 23.828125 47.769531 23.699219 C 47.769531 23.566406 47.714844 23.445312 47.625 23.355469 C 47.261719 23 46.910156 22.640625 46.554688 22.277344 L 46.128906 21.847656 C 46.105469 21.824219 46.058594 21.773438 46.027344 21.738281 C 46.027344 21.738281 46.027344 21.738281 46.03125 21.734375 C 46.039062 21.714844 46.042969 21.707031 46.042969 21.707031 C 46.078125 21.691406 46.1875 21.6875 46.261719 21.683594 L 51.117188 21.449219 L 51.195312 21.449219 C 51.296875 21.449219 51.34375 21.460938 51.34375 21.464844 C 51.351562 21.476562 51.367188 21.527344 51.367188 21.648438 Z M 52.039062 20.796875 C 51.839844 20.589844 51.554688 20.484375 51.195312 20.484375 L 46.214844 20.71875 C 45.9375 20.730469 45.425781 20.753906 45.164062 21.328125 C 44.875 21.949219 45.277344 22.355469 45.453125 22.53125 L 45.875 22.960938 C 46.121094 23.210938 46.363281 23.460938 46.613281 23.707031 L 36.980469 33.453125 L 31.214844 27.617188 C 30.921875 27.324219 30.53125 27.164062 30.117188 27.164062 C 29.707031 27.164062 29.320312 27.324219 29.019531 27.617188 L 23.132812 33.578125 C 22.839844 33.871094 22.679688 34.265625 22.679688 34.6875 C 22.679688 35.109375 22.839844 35.503906 23.132812 35.796875 L 23.398438 36.066406 C 23.691406 36.359375 24.078125 36.523438 24.496094 36.523438 C 24.902344 36.523438 25.289062 36.363281 25.59375 36.066406 L 30.117188 31.488281 L 35.882812 37.324219 C 36.171875 37.621094 36.5625 37.777344 36.980469 37.777344 C 37.386719 37.777344 37.773438 37.621094 38.078125 37.324219 L 49.070312 26.195312 L 50.222656 27.355469 C 50.382812 27.515625 50.625 27.757812 51.003906 27.757812 C 51.15625 27.757812 51.316406 27.71875 51.472656 27.632812 C 52.0625 27.308594 52.089844 26.707031 52.09375 26.511719 C 52.164062 24.9375 52.238281 23.367188 52.3125 21.796875 L 52.316406 21.691406 C 52.332031 21.308594 52.238281 21.007812 52.039062 20.796875 " fill-opacity="1" fill-rule="nonzero"/></g><g clip-path="url(#113db17946)"><path fill="#f97316" d="M 34.519531 27.347656 C 34.578125 27.125 34.640625 26.898438 34.707031 26.671875 C 35.199219 26.910156 35.738281 27.066406 36.355469 27.144531 C 36.835938 27.199219 37.261719 27.140625 37.664062 26.964844 C 38.117188 26.761719 38.421875 26.371094 38.488281 25.917969 C 38.550781 25.457031 38.359375 24.992188 37.972656 24.671875 C 37.777344 24.511719 37.542969 24.371094 37.261719 24.246094 C 37.085938 24.167969 36.90625 24.101562 36.730469 24.027344 C 36.347656 23.871094 35.984375 23.726562 35.652344 23.523438 C 34.859375 23.046875 34.511719 22.46875 34.5625 21.699219 C 34.617188 20.777344 35.105469 20.15625 36.074219 19.800781 C 36.683594 19.578125 36.816406 19.390625 36.816406 18.726562 L 36.8125 18.558594 C 36.8125 18.480469 36.8125 18.402344 36.8125 18.3125 L 37.074219 18.3125 C 37.164062 18.3125 37.257812 18.3125 37.335938 18.316406 C 37.335938 18.394531 37.335938 18.488281 37.335938 18.578125 C 37.335938 19.347656 37.511719 19.550781 38.269531 19.671875 C 38.578125 19.71875 38.890625 19.808594 39.21875 19.949219 L 39.167969 20.125 C 39.117188 20.308594 39.066406 20.492188 39.011719 20.671875 C 38.398438 20.402344 37.753906 20.285156 37.082031 20.324219 C 36.90625 20.335938 36.671875 20.363281 36.433594 20.464844 C 36.019531 20.648438 35.738281 21.003906 35.679688 21.417969 C 35.628906 21.828125 35.804688 22.242188 36.148438 22.519531 C 36.457031 22.777344 36.796875 22.9375 37.0625 23.046875 L 37.171875 23.09375 C 37.621094 23.28125 38.046875 23.457031 38.457031 23.683594 C 39.054688 24.019531 39.46875 24.585938 39.589844 25.230469 C 39.707031 25.84375 39.550781 26.449219 39.15625 26.9375 C 38.84375 27.3125 38.445312 27.574219 37.957031 27.710938 C 37.488281 27.847656 37.238281 28.183594 37.261719 28.664062 C 37.269531 28.828125 37.265625 28.988281 37.261719 29.152344 C 37.261719 29.199219 37.261719 29.242188 37.261719 29.292969 C 37.074219 29.292969 36.890625 29.292969 36.699219 29.292969 C 36.699219 29.226562 36.699219 29.164062 36.695312 29.101562 C 36.695312 29.007812 36.691406 28.917969 36.691406 28.820312 C 36.683594 28.171875 36.5 27.957031 35.875 27.851562 C 35.332031 27.769531 34.910156 27.648438 34.550781 27.472656 C 34.527344 27.460938 34.511719 27.453125 34.496094 27.445312 C 34.5 27.417969 34.507812 27.390625 34.519531 27.347656 Z M 34.132812 28.34375 C 34.585938 28.5625 35.089844 28.710938 35.722656 28.808594 C 35.730469 28.808594 35.730469 28.808594 35.738281 28.8125 C 35.738281 28.816406 35.738281 28.824219 35.738281 28.824219 C 35.738281 28.921875 35.738281 29.019531 35.738281 29.117188 C 35.738281 29.207031 35.742188 29.300781 35.742188 29.390625 C 35.742188 29.898438 36.070312 30.246094 36.5625 30.253906 C 36.707031 30.257812 36.84375 30.261719 36.984375 30.261719 C 37.125 30.261719 37.265625 30.257812 37.410156 30.253906 C 37.890625 30.246094 38.21875 29.90625 38.21875 29.417969 C 38.21875 29.332031 38.21875 29.25 38.222656 29.164062 C 38.222656 28.992188 38.226562 28.820312 38.21875 28.640625 C 38.890625 28.449219 39.457031 28.085938 39.890625 27.554688 C 40.464844 26.851562 40.699219 25.9375 40.527344 25.050781 C 40.355469 24.121094 39.769531 23.316406 38.917969 22.835938 C 38.464844 22.582031 37.988281 22.386719 37.535156 22.195312 L 37.429688 22.152344 C 37.226562 22.066406 36.96875 21.949219 36.753906 21.769531 C 36.664062 21.699219 36.621094 21.617188 36.632812 21.546875 C 36.640625 21.472656 36.710938 21.398438 36.8125 21.355469 C 36.890625 21.320312 36.992188 21.300781 37.140625 21.289062 C 37.703125 21.257812 38.222656 21.363281 38.730469 21.605469 C 38.851562 21.664062 39.136719 21.808594 39.433594 21.683594 C 39.730469 21.558594 39.835938 21.246094 39.878906 21.109375 C 39.953125 20.871094 40.019531 20.632812 40.089844 20.390625 L 40.164062 20.132812 C 40.296875 19.6875 40.105469 19.28125 39.679688 19.097656 C 39.261719 18.90625 38.832031 18.777344 38.414062 18.714844 C 38.375 18.710938 38.332031 18.703125 38.292969 18.695312 C 38.292969 18.65625 38.292969 18.617188 38.292969 18.578125 C 38.285156 17.5625 38.070312 17.347656 37.074219 17.347656 L 36.734375 17.347656 C 36.132812 17.367188 35.871094 17.636719 35.859375 18.234375 C 35.855469 18.351562 35.859375 18.460938 35.859375 18.574219 L 35.859375 18.726562 C 35.859375 18.765625 35.859375 18.8125 35.859375 18.851562 C 35.820312 18.863281 35.777344 18.882812 35.726562 18.898438 C 34.417969 19.378906 33.683594 20.328125 33.605469 21.640625 C 33.535156 22.777344 34.0625 23.691406 35.164062 24.359375 C 35.558594 24.59375 35.972656 24.761719 36.375 24.925781 C 36.542969 24.996094 36.710938 25.0625 36.878906 25.136719 C 37.085938 25.226562 37.242188 25.320312 37.371094 25.425781 C 37.496094 25.527344 37.558594 25.660156 37.539062 25.785156 C 37.519531 25.90625 37.429688 26.011719 37.285156 26.078125 C 37.039062 26.183594 36.769531 26.21875 36.46875 26.183594 C 35.90625 26.113281 35.429688 25.96875 35.007812 25.742188 C 34.871094 25.667969 34.585938 25.515625 34.285156 25.640625 C 33.980469 25.769531 33.882812 26.089844 33.839844 26.238281 C 33.75 26.527344 33.671875 26.8125 33.59375 27.105469 C 33.417969 27.730469 33.5625 28.0625 34.132812 28.34375 " fill-opacity="1" fill-rule="nonzero"/></g><g clip-path="url(#34f0e7ef86)"><path fill="#f97316" d="M 35.820312 41.246094 C 35.820312 41.578125 35.550781 41.847656 35.222656 41.847656 L 32.8125 41.847656 C 32.484375 41.847656 32.21875 41.578125 32.21875 41.246094 L 32.21875 35.570312 L 34.652344 38.03125 L 34.914062 38.300781 C 35.179688 38.566406 35.484375 38.773438 35.820312 38.921875 Z M 36.429688 38.117188 C 36.117188 38.027344 35.828125 37.855469 35.59375 37.617188 L 32.226562 34.207031 C 32.121094 34.105469 31.972656 34.050781 31.828125 34.070312 C 31.683594 34.085938 31.554688 34.175781 31.476562 34.304688 C 31.335938 34.539062 31.261719 34.816406 31.261719 35.097656 L 31.261719 41.246094 C 31.261719 42.109375 31.957031 42.816406 32.8125 42.816406 L 35.222656 42.816406 C 36.078125 42.816406 36.773438 42.109375 36.773438 41.246094 L 36.773438 38.582031 C 36.773438 38.367188 36.632812 38.179688 36.429688 38.117188 " fill-opacity="1" fill-rule="nonzero"/></g><g clip-path="url(#a4a92040c8)"><path fill="#f97316" d="M 42.109375 41.246094 C 42.109375 41.578125 41.84375 41.847656 41.519531 41.847656 L 39.105469 41.847656 C 38.777344 41.847656 38.511719 41.578125 38.511719 41.246094 L 38.511719 38.722656 C 38.699219 38.601562 38.875 38.460938 39.035156 38.296875 L 42.109375 35.1875 Z M 41.9375 33.996094 L 38.359375 37.617188 C 38.203125 37.773438 38.023438 37.902344 37.828125 37.996094 C 37.660156 38.078125 37.554688 38.246094 37.554688 38.433594 L 37.554688 41.246094 C 37.554688 42.109375 38.25 42.816406 39.105469 42.816406 L 41.519531 42.816406 C 42.371094 42.816406 43.066406 42.109375 43.066406 41.246094 L 43.066406 35.101562 C 43.066406 34.683594 42.90625 34.289062 42.617188 33.996094 C 42.429688 33.804688 42.125 33.804688 41.9375 33.996094 " fill-opacity="1" fill-rule="nonzero"/></g><g clip-path="url(#8ba3b102a4)"><path fill="#f97316" d="M 48.398438 41.234375 C 48.398438 41.566406 48.132812 41.835938 47.800781 41.835938 L 45.390625 41.835938 C 45.0625 41.835938 44.796875 41.566406 44.796875 41.234375 L 44.796875 32.464844 L 48.398438 28.820312 Z M 49.019531 27.207031 C 48.847656 27.144531 48.65625 27.191406 48.527344 27.324219 L 44.640625 31.253906 L 43.980469 31.917969 C 43.890625 32.011719 43.84375 32.136719 43.84375 32.261719 L 43.84375 41.234375 C 43.84375 42.097656 44.535156 42.800781 45.390625 42.800781 L 47.800781 42.800781 C 48.65625 42.800781 49.351562 42.097656 49.351562 41.234375 L 49.351562 27.808594 C 49.351562 27.742188 49.347656 27.671875 49.339844 27.601562 C 49.316406 27.417969 49.1875 27.265625 49.019531 27.207031 " fill-opacity="1" fill-rule="nonzero"/></g><g fill="#f97316" fill-opacity="1"><g transform="translate(16.524203, 50.584286)"><g><path d="M 3.984375 0 L 3.765625 -2.625 L 3.734375 -2.625 L 2.828125 -0.03125 L 2.234375 -0.03125 L 1.328125 -2.625 L 1.296875 -2.625 L 1.09375 0 L 0.078125 0 L 0.484375 -4.421875 L 1.546875 -4.421875 L 2.53125 -1.875 L 3.515625 -4.421875 L 4.59375 -4.421875 L 4.984375 0 Z M 3.984375 0 "/></g></g></g><g fill="#f97316" fill-opacity="1"><g transform="translate(22.018081, 50.584286)"><g><path d="M 0.125 -2.21875 C 0.125 -2.851562 0.34375 -3.390625 0.78125 -3.828125 C 1.21875 -4.273438 1.742188 -4.5 2.359375 -4.5 C 2.972656 -4.5 3.492188 -4.273438 3.921875 -3.828125 C 4.359375 -3.390625 4.578125 -2.851562 4.578125 -2.21875 C 4.578125 -1.570312 4.363281 -1.023438 3.9375 -0.578125 C 3.507812 -0.140625 2.984375 0.078125 2.359375 0.078125 C 1.703125 0.078125 1.164062 -0.140625 0.75 -0.578125 C 0.332031 -1.015625 0.125 -1.5625 0.125 -2.21875 Z M 1.21875 -2.21875 C 1.21875 -1.976562 1.25 -1.765625 1.3125 -1.578125 C 1.382812 -1.390625 1.507812 -1.226562 1.6875 -1.09375 C 1.875 -0.957031 2.097656 -0.890625 2.359375 -0.890625 C 2.734375 -0.890625 3.015625 -1.019531 3.203125 -1.28125 C 3.390625 -1.539062 3.484375 -1.851562 3.484375 -2.21875 C 3.484375 -2.570312 3.382812 -2.878906 3.1875 -3.140625 C 3 -3.398438 2.722656 -3.53125 2.359375 -3.53125 C 1.992188 -3.53125 1.710938 -3.398438 1.515625 -3.140625 C 1.316406 -2.878906 1.21875 -2.570312 1.21875 -2.21875 Z M 1.21875 -2.21875 "/></g></g></g><g fill="#f97316" fill-opacity="1"><g transform="translate(27.141783, 50.584286)"><g><path d="M 1.328125 -2.75 L 1.328125 0 L 0.328125 0 L 0.328125 -4.421875 L 1.328125 -4.421875 L 3.09375 -1.671875 L 3.09375 -4.421875 L 4.109375 -4.421875 L 4.109375 0 L 3.09375 0 L 1.34375 -2.75 Z M 1.328125 -2.75 "/></g></g></g><g fill="#f97316" fill-opacity="1"><g transform="translate(31.991878, 50.584286)"><g><path d="M 2.84375 -4.421875 L 2.84375 -3.53125 L 1.328125 -3.53125 L 1.328125 -2.65625 L 2.78125 -2.65625 L 2.78125 -1.78125 L 1.328125 -1.78125 L 1.328125 -0.890625 L 2.84375 -0.890625 L 2.84375 0 L 0.328125 0 L 0.328125 -4.421875 Z M 2.84375 -4.421875 "/></g></g></g><g fill="#f97316" fill-opacity="1"><g transform="translate(35.522222, 50.584286)"><g><path d="M -0.15625 -4.421875 L 1.046875 -4.421875 L 1.96875 -3 L 2.890625 -4.421875 L 4.109375 -4.421875 L 2.46875 -1.984375 L 2.46875 0 L 1.46875 0 L 1.46875 -1.984375 Z M -0.15625 -4.421875 "/></g></g></g><g fill="#f97316" fill-opacity="1"><g transform="translate(39.889482, 50.584286)"><g/></g></g><g fill="#f97316" fill-opacity="1"><g transform="translate(41.772818, 50.584286)"><g><path d="M 1.328125 -2.75 L 1.328125 0 L 0.328125 0 L 0.328125 -4.421875 L 1.328125 -4.421875 L 3.09375 -1.671875 L 3.09375 -4.421875 L 4.109375 -4.421875 L 4.109375 0 L 3.09375 0 L 1.34375 -2.75 Z M 1.328125 -2.75 "/></g></g></g><g fill="#f97316" fill-opacity="1"><g transform="translate(46.622913, 50.584286)"><g><path d="M 0.125 -2.21875 C 0.125 -2.851562 0.34375 -3.390625 0.78125 -3.828125 C 1.21875 -4.273438 1.742188 -4.5 2.359375 -4.5 C 2.972656 -4.5 3.492188 -4.273438 3.921875 -3.828125 C 4.359375 -3.390625 4.578125 -2.851562 4.578125 -2.21875 C 4.578125 -1.570312 4.363281 -1.023438 3.9375 -0.578125 C 3.507812 -0.140625 2.984375 0.078125 2.359375 0.078125 C 1.703125 0.078125 1.164062 -0.140625 0.75 -0.578125 C 0.332031 -1.015625 0.125 -1.5625 0.125 -2.21875 Z M 1.21875 -2.21875 C 1.21875 -1.976562 1.25 -1.765625 1.3125 -1.578125 C 1.382812 -1.390625 1.507812 -1.226562 1.6875 -1.09375 C 1.875 -0.957031 2.097656 -0.890625 2.359375 -0.890625 C 2.734375 -0.890625 3.015625 -1.019531 3.203125 -1.28125 C 3.390625 -1.539062 3.484375 -1.851562 3.484375 -2.21875 C 3.484375 -2.570312 3.382812 -2.878906 3.1875 -3.140625 C 3 -3.398438 2.722656 -3.53125 2.359375 -3.53125 C 1.992188 -3.53125 1.710938 -3.398438 1.515625 -3.140625 C 1.316406 -2.878906 1.21875 -2.570312 1.21875 -2.21875 Z M 1.21875 -2.21875 "/></g></g></g><g fill="#f97316" fill-opacity="1"><g transform="translate(51.746615, 50.584286)"><g><path d="M 0.046875 -3.53125 L 0.046875 -4.421875 L 3.15625 -4.421875 L 3.15625 -3.53125 L 2.09375 -3.53125 L 2.09375 0 L 1.09375 0 L 1.09375 -3.53125 Z M 0.046875 -3.53125 "/></g></g></g><g fill="#f97316" fill-opacity="1"><g transform="translate(55.362797, 50.584286)"><g><path d="M 2.84375 -4.421875 L 2.84375 -3.53125 L 1.328125 -3.53125 L 1.328125 -2.65625 L 2.78125 -2.65625 L 2.78125 -1.78125 L 1.328125 -1.78125 L 1.328125 -0.890625 L 2.84375 -0.890625 L 2.84375 0 L 0.328125 0 L 0.328125 -4.421875 Z M 2.84375 -4.421875 "/></g></g></g></svg>